<svg width="100" height="89" viewBox="0 0 100 89" fill="none" xmlns="http://www.w3.org/2000/svg">
<g id="Icon / video-solid 2">
<path id="Vector" d="M0 22.25C0 16.1139 4.98264 11.125 11.1111 11.125H55.5556C61.684 11.125 66.6667 16.1139 66.6667 22.25V66.75C66.6667 72.8861 61.684 77.875 55.5556 77.875H11.1111C4.98264 77.875 0 72.8861 0 66.75V22.25ZM97.066 17.348C98.8715 18.3215 100 20.1988 100 22.25V66.75C100 68.8012 98.8715 70.6785 97.066 71.652C95.2604 72.6254 93.0729 72.5211 91.3542 71.3738L74.6875 60.2488L72.2222 58.5975V55.625V33.375V30.4025L74.6875 28.7512L91.3542 17.6262C93.0556 16.4963 95.243 16.3746 97.066 17.348Z" fill="#1E3050" fill-opacity="0.2"/>
</g>
</svg>
